<?xml version="1.0" standalone="no"?>
<!DOCTYPE svg PUBLIC "-//W3C//DTD SVG 20010904//EN"
 "http://www.w3.org/TR/2001/REC-SVG-20010904/DTD/svg10.dtd">
<svg version="1.0" xmlns="http://www.w3.org/2000/svg"
 width="800.000000pt" height="800.000000pt" viewBox="0 0 800.000000 800.000000"
 preserveAspectRatio="xMidYMid meet">
<metadata>
Created by potrace 1.16, written by Peter Selinger 2001-2019
</metadata>
<g transform="translate(0.000000,800.000000) scale(0.100000,-0.100000)"
fill="#000000" stroke="none">
<path d="M4155 6351 c-62 -15 -112 -57 -129 -107 -17 -49 -21 -96 -9 -107 3
-4 14 -30 24 -58 10 -28 47 -99 82 -157 34 -59 69 -127 77 -152 7 -25 20 -58
27 -73 26 -53 44 -262 43 -507 0 -129 -4 -237 -8 -241 -29 -25 -384 -120 -398
-106 -3 3 10 36 29 74 49 95 57 125 57 213 0 86 -16 129 -73 196 -86 99 -213
164 -322 164 -149 0 -237 -108 -255 -316 -5 -58 -12 -108 -14 -113 -5 -8 -31
-180 -40 -271 -7 -69 -40 -197 -70 -275 -13 -33 -37 -94 -52 -135 -16 -41 -49
-114 -75 -162 -46 -85 -47 -90 -40 -145 10 -73 43 -103 113 -103 63 0 113 28
187 103 84 87 140 162 326 432 l30 44 115 0 c63 0 190 8 282 18 92 9 170 14
172 12 6 -6 -11 -180 -29 -289 -8 -47 -17 -132 -21 -189 l-7 -103 -56 -36
c-31 -20 -110 -64 -176 -98 -66 -34 -165 -85 -220 -114 -198 -103 -291 -149
-345 -170 -30 -12 -69 -29 -86 -39 -17 -10 -48 -24 -70 -31 -45 -14 -129 -49
-208 -85 -30 -14 -60 -25 -67 -25 -7 0 -45 -19 -85 -42 -98 -58 -113 -92 -74
-174 24 -48 40 -56 165 -83 50 -11 110 -25 135 -31 59 -16 211 -7 275 15 81
28 212 97 327 171 59 38 156 98 215 132 59 35 135 81 168 102 33 21 63 36 68
33 4 -2 5 -32 2 -66 -27 -302 -40 -1118 -19 -1240 15 -91 52 -164 106 -212 64
-58 113 -58 208 -1 62 36 90 73 113 143 26 81 58 272 67 395 5 65 11 122 15
128 17 28 32 447 28 810 l-3 385 30 19 c17 9 63 44 103 75 40 32 105 79 144
104 99 63 113 79 113 125 0 37 -32 94 -62 114 -27 17 -115 7 -198 -23 -124
-44 -120 -43 -120 -26 0 8 6 52 14 98 8 46 16 127 19 180 6 114 16 139 57 139
42 0 167 28 228 50 77 29 111 48 161 88 62 50 81 86 81 153 0 78 -36 128 -110
152 -29 9 -69 17 -90 17 -38 0 -205 -23 -252 -35 l-28 -7 0 63 c0 35 5 82 10
104 6 22 15 119 22 215 10 157 10 187 -6 285 -10 61 -22 115 -26 120 -4 6 -11
26 -15 45 -21 104 -83 228 -145 290 -56 56 -167 118 -231 129 -86 15 -172 20
-204 12z"/>
</g>
</svg>
